<mxfile host="app.diagrams.net" modified="2022-08-03T14:12:46.524Z" agent="5.0 (Macintosh; Intel Mac OS X 10_15_7) AppleWebKit/537.36 (KHTML, like Gecko) Chrome/103.0.0.0 Safari/537.36" etag="3w0JdkbyMgPCFB9TqEr1" version="20.2.2" type="github">
  <diagram id="pdv7svproLIONUE0IWjK" name="Page-1">
    <mxGraphModel dx="1522" dy="721" grid="1" gridSize="10" guides="1" tooltips="1" connect="1" arrows="1" fold="1" page="0" pageScale="1" pageWidth="827" pageHeight="1169" math="0" shadow="0">
      <root>
        <mxCell id="0" />
        <mxCell id="1" parent="0" />
        <mxCell id="SzZliVr7t9WPG1wRtsnK-15" style="edgeStyle=orthogonalEdgeStyle;rounded=0;orthogonalLoop=1;jettySize=auto;html=1;entryX=0;entryY=0.5;entryDx=0;entryDy=0;" edge="1" parent="1" source="SzZliVr7t9WPG1wRtsnK-1" target="SzZliVr7t9WPG1wRtsnK-14">
          <mxGeometry relative="1" as="geometry" />
        </mxCell>
        <mxCell id="SzZliVr7t9WPG1wRtsnK-18" style="edgeStyle=orthogonalEdgeStyle;rounded=0;orthogonalLoop=1;jettySize=auto;html=1;" edge="1" parent="1" source="SzZliVr7t9WPG1wRtsnK-1" target="SzZliVr7t9WPG1wRtsnK-17">
          <mxGeometry relative="1" as="geometry" />
        </mxCell>
        <mxCell id="SzZliVr7t9WPG1wRtsnK-21" style="edgeStyle=orthogonalEdgeStyle;rounded=0;orthogonalLoop=1;jettySize=auto;html=1;entryX=0;entryY=0.5;entryDx=0;entryDy=0;" edge="1" parent="1" source="SzZliVr7t9WPG1wRtsnK-1" target="SzZliVr7t9WPG1wRtsnK-20">
          <mxGeometry relative="1" as="geometry" />
        </mxCell>
        <mxCell id="SzZliVr7t9WPG1wRtsnK-24" style="edgeStyle=orthogonalEdgeStyle;rounded=0;orthogonalLoop=1;jettySize=auto;html=1;entryX=0;entryY=0.5;entryDx=0;entryDy=0;" edge="1" parent="1" source="SzZliVr7t9WPG1wRtsnK-1" target="SzZliVr7t9WPG1wRtsnK-23">
          <mxGeometry relative="1" as="geometry" />
        </mxCell>
        <mxCell id="SzZliVr7t9WPG1wRtsnK-33" style="edgeStyle=orthogonalEdgeStyle;rounded=0;orthogonalLoop=1;jettySize=auto;html=1;entryX=0;entryY=0.5;entryDx=0;entryDy=0;" edge="1" parent="1" source="SzZliVr7t9WPG1wRtsnK-1" target="SzZliVr7t9WPG1wRtsnK-30">
          <mxGeometry relative="1" as="geometry" />
        </mxCell>
        <mxCell id="SzZliVr7t9WPG1wRtsnK-36" style="edgeStyle=orthogonalEdgeStyle;rounded=0;orthogonalLoop=1;jettySize=auto;html=1;entryX=0;entryY=0.5;entryDx=0;entryDy=0;" edge="1" parent="1" source="SzZliVr7t9WPG1wRtsnK-1" target="SzZliVr7t9WPG1wRtsnK-35">
          <mxGeometry relative="1" as="geometry" />
        </mxCell>
        <mxCell id="SzZliVr7t9WPG1wRtsnK-39" style="edgeStyle=orthogonalEdgeStyle;rounded=0;orthogonalLoop=1;jettySize=auto;html=1;entryX=0;entryY=0.5;entryDx=0;entryDy=0;" edge="1" parent="1" source="SzZliVr7t9WPG1wRtsnK-1" target="SzZliVr7t9WPG1wRtsnK-38">
          <mxGeometry relative="1" as="geometry" />
        </mxCell>
        <mxCell id="SzZliVr7t9WPG1wRtsnK-42" style="edgeStyle=orthogonalEdgeStyle;rounded=0;orthogonalLoop=1;jettySize=auto;html=1;entryX=0;entryY=0.5;entryDx=0;entryDy=0;" edge="1" parent="1" source="SzZliVr7t9WPG1wRtsnK-1" target="SzZliVr7t9WPG1wRtsnK-41">
          <mxGeometry relative="1" as="geometry" />
        </mxCell>
        <mxCell id="SzZliVr7t9WPG1wRtsnK-1" value="Guest" style="shape=umlActor;verticalLabelPosition=bottom;verticalAlign=top;html=1;outlineConnect=0;spacing=10;spacingRight=0;" vertex="1" parent="1">
          <mxGeometry x="-110" y="320" width="30" height="60" as="geometry" />
        </mxCell>
        <mxCell id="SzZliVr7t9WPG1wRtsnK-28" style="edgeStyle=orthogonalEdgeStyle;rounded=0;orthogonalLoop=1;jettySize=auto;html=1;entryX=1;entryY=0.5;entryDx=0;entryDy=0;" edge="1" parent="1" source="SzZliVr7t9WPG1wRtsnK-2" target="SzZliVr7t9WPG1wRtsnK-27">
          <mxGeometry relative="1" as="geometry" />
        </mxCell>
        <mxCell id="SzZliVr7t9WPG1wRtsnK-56" style="edgeStyle=orthogonalEdgeStyle;rounded=0;orthogonalLoop=1;jettySize=auto;html=1;entryX=0;entryY=0.5;entryDx=0;entryDy=0;" edge="1" parent="1" source="SzZliVr7t9WPG1wRtsnK-2" target="SzZliVr7t9WPG1wRtsnK-49">
          <mxGeometry relative="1" as="geometry" />
        </mxCell>
        <mxCell id="SzZliVr7t9WPG1wRtsnK-57" style="edgeStyle=orthogonalEdgeStyle;rounded=0;orthogonalLoop=1;jettySize=auto;html=1;entryX=0;entryY=0.5;entryDx=0;entryDy=0;" edge="1" parent="1" source="SzZliVr7t9WPG1wRtsnK-2" target="SzZliVr7t9WPG1wRtsnK-47">
          <mxGeometry relative="1" as="geometry" />
        </mxCell>
        <mxCell id="SzZliVr7t9WPG1wRtsnK-58" style="edgeStyle=orthogonalEdgeStyle;rounded=0;orthogonalLoop=1;jettySize=auto;html=1;entryX=0;entryY=0.5;entryDx=0;entryDy=0;" edge="1" parent="1" source="SzZliVr7t9WPG1wRtsnK-2" target="SzZliVr7t9WPG1wRtsnK-54">
          <mxGeometry relative="1" as="geometry" />
        </mxCell>
        <mxCell id="SzZliVr7t9WPG1wRtsnK-59" style="edgeStyle=orthogonalEdgeStyle;rounded=0;orthogonalLoop=1;jettySize=auto;html=1;entryX=0;entryY=0.5;entryDx=0;entryDy=0;" edge="1" parent="1" source="SzZliVr7t9WPG1wRtsnK-2" target="SzZliVr7t9WPG1wRtsnK-45">
          <mxGeometry relative="1" as="geometry" />
        </mxCell>
        <mxCell id="SzZliVr7t9WPG1wRtsnK-2" value="«Component»&lt;br&gt;&lt;b&gt;Web System&lt;/b&gt;" style="html=1;dropTarget=0;spacing=7;" vertex="1" parent="1">
          <mxGeometry x="240" y="305" width="180" height="90" as="geometry" />
        </mxCell>
        <mxCell id="SzZliVr7t9WPG1wRtsnK-3" value="" style="shape=module;jettyWidth=8;jettyHeight=4;" vertex="1" parent="SzZliVr7t9WPG1wRtsnK-2">
          <mxGeometry x="1" width="20" height="20" relative="1" as="geometry">
            <mxPoint x="-27" y="7" as="offset" />
          </mxGeometry>
        </mxCell>
        <mxCell id="SzZliVr7t9WPG1wRtsnK-16" style="edgeStyle=orthogonalEdgeStyle;rounded=0;orthogonalLoop=1;jettySize=auto;html=1;entryX=0;entryY=0.5;entryDx=0;entryDy=0;" edge="1" parent="1" source="SzZliVr7t9WPG1wRtsnK-14" target="SzZliVr7t9WPG1wRtsnK-2">
          <mxGeometry relative="1" as="geometry" />
        </mxCell>
        <mxCell id="SzZliVr7t9WPG1wRtsnK-14" value="visits view" style="rounded=1;whiteSpace=wrap;html=1;" vertex="1" parent="1">
          <mxGeometry x="40" y="240" width="120" height="28" as="geometry" />
        </mxCell>
        <mxCell id="SzZliVr7t9WPG1wRtsnK-19" style="edgeStyle=orthogonalEdgeStyle;rounded=0;orthogonalLoop=1;jettySize=auto;html=1;entryX=0;entryY=0.5;entryDx=0;entryDy=0;" edge="1" parent="1" source="SzZliVr7t9WPG1wRtsnK-17" target="SzZliVr7t9WPG1wRtsnK-2">
          <mxGeometry relative="1" as="geometry" />
        </mxCell>
        <mxCell id="SzZliVr7t9WPG1wRtsnK-17" value="visits project" style="rounded=1;whiteSpace=wrap;html=1;" vertex="1" parent="1">
          <mxGeometry x="40" y="292" width="120" height="28" as="geometry" />
        </mxCell>
        <mxCell id="SzZliVr7t9WPG1wRtsnK-22" style="edgeStyle=orthogonalEdgeStyle;rounded=0;orthogonalLoop=1;jettySize=auto;html=1;entryX=0;entryY=0.5;entryDx=0;entryDy=0;" edge="1" parent="1" source="SzZliVr7t9WPG1wRtsnK-20" target="SzZliVr7t9WPG1wRtsnK-2">
          <mxGeometry relative="1" as="geometry" />
        </mxCell>
        <mxCell id="SzZliVr7t9WPG1wRtsnK-20" value="visits profile" style="rounded=1;whiteSpace=wrap;html=1;" vertex="1" parent="1">
          <mxGeometry x="40" y="336" width="120" height="28" as="geometry" />
        </mxCell>
        <mxCell id="SzZliVr7t9WPG1wRtsnK-25" style="edgeStyle=orthogonalEdgeStyle;rounded=0;orthogonalLoop=1;jettySize=auto;html=1;entryX=0;entryY=0.5;entryDx=0;entryDy=0;" edge="1" parent="1" source="SzZliVr7t9WPG1wRtsnK-23" target="SzZliVr7t9WPG1wRtsnK-2">
          <mxGeometry relative="1" as="geometry" />
        </mxCell>
        <mxCell id="SzZliVr7t9WPG1wRtsnK-23" value="project interaction" style="rounded=1;whiteSpace=wrap;html=1;" vertex="1" parent="1">
          <mxGeometry x="40" y="380" width="120" height="28" as="geometry" />
        </mxCell>
        <mxCell id="SzZliVr7t9WPG1wRtsnK-29" style="edgeStyle=orthogonalEdgeStyle;rounded=0;orthogonalLoop=1;jettySize=auto;html=1;" edge="1" parent="1" source="SzZliVr7t9WPG1wRtsnK-27">
          <mxGeometry relative="1" as="geometry">
            <mxPoint x="-80" y="380" as="targetPoint" />
            <Array as="points">
              <mxPoint x="-20" y="440" />
              <mxPoint x="-20" y="380" />
            </Array>
          </mxGeometry>
        </mxCell>
        <mxCell id="SzZliVr7t9WPG1wRtsnK-27" value="interaction rejection" style="rounded=1;whiteSpace=wrap;html=1;" vertex="1" parent="1">
          <mxGeometry x="40" y="430" width="120" height="28" as="geometry" />
        </mxCell>
        <mxCell id="SzZliVr7t9WPG1wRtsnK-34" style="edgeStyle=orthogonalEdgeStyle;rounded=0;orthogonalLoop=1;jettySize=auto;html=1;entryX=0;entryY=0.5;entryDx=0;entryDy=0;" edge="1" parent="1" source="SzZliVr7t9WPG1wRtsnK-30" target="SzZliVr7t9WPG1wRtsnK-2">
          <mxGeometry relative="1" as="geometry" />
        </mxCell>
        <mxCell id="SzZliVr7t9WPG1wRtsnK-30" value="profile interaction" style="rounded=1;whiteSpace=wrap;html=1;" vertex="1" parent="1">
          <mxGeometry x="40" y="480" width="120" height="28" as="geometry" />
        </mxCell>
        <mxCell id="SzZliVr7t9WPG1wRtsnK-37" style="edgeStyle=orthogonalEdgeStyle;rounded=0;orthogonalLoop=1;jettySize=auto;html=1;entryX=0;entryY=0.5;entryDx=0;entryDy=0;" edge="1" parent="1" source="SzZliVr7t9WPG1wRtsnK-35" target="SzZliVr7t9WPG1wRtsnK-2">
          <mxGeometry relative="1" as="geometry" />
        </mxCell>
        <mxCell id="SzZliVr7t9WPG1wRtsnK-35" value="visits conference" style="rounded=1;whiteSpace=wrap;html=1;" vertex="1" parent="1">
          <mxGeometry x="40" y="530" width="120" height="28" as="geometry" />
        </mxCell>
        <mxCell id="SzZliVr7t9WPG1wRtsnK-40" style="edgeStyle=orthogonalEdgeStyle;rounded=0;orthogonalLoop=1;jettySize=auto;html=1;entryX=0;entryY=0.5;entryDx=0;entryDy=0;" edge="1" parent="1" source="SzZliVr7t9WPG1wRtsnK-38" target="SzZliVr7t9WPG1wRtsnK-2">
          <mxGeometry relative="1" as="geometry" />
        </mxCell>
        <mxCell id="SzZliVr7t9WPG1wRtsnK-38" value="conference interaction" style="rounded=1;whiteSpace=wrap;html=1;" vertex="1" parent="1">
          <mxGeometry x="40" y="568" width="120" height="32" as="geometry" />
        </mxCell>
        <mxCell id="SzZliVr7t9WPG1wRtsnK-43" style="edgeStyle=orthogonalEdgeStyle;rounded=0;orthogonalLoop=1;jettySize=auto;html=1;entryX=0;entryY=0.5;entryDx=0;entryDy=0;" edge="1" parent="1" source="SzZliVr7t9WPG1wRtsnK-41" target="SzZliVr7t9WPG1wRtsnK-2">
          <mxGeometry relative="1" as="geometry" />
        </mxCell>
        <mxCell id="SzZliVr7t9WPG1wRtsnK-41" value="review&lt;br&gt;conference&lt;br&gt;details" style="rounded=1;whiteSpace=wrap;html=1;" vertex="1" parent="1">
          <mxGeometry x="40" y="610" width="120" height="50" as="geometry" />
        </mxCell>
        <mxCell id="SzZliVr7t9WPG1wRtsnK-45" value="«Component»&lt;br&gt;&lt;b&gt;Conference&lt;/b&gt;" style="html=1;dropTarget=0;" vertex="1" parent="1">
          <mxGeometry x="500" y="427" width="150" height="40" as="geometry" />
        </mxCell>
        <mxCell id="SzZliVr7t9WPG1wRtsnK-46" value="" style="shape=module;jettyWidth=8;jettyHeight=4;" vertex="1" parent="SzZliVr7t9WPG1wRtsnK-45">
          <mxGeometry x="1" width="20" height="20" relative="1" as="geometry">
            <mxPoint x="-27" y="7" as="offset" />
          </mxGeometry>
        </mxCell>
        <mxCell id="SzZliVr7t9WPG1wRtsnK-47" value="«Component»&lt;br&gt;&lt;b&gt;User&lt;/b&gt;" style="html=1;dropTarget=0;" vertex="1" parent="1">
          <mxGeometry x="500" y="307" width="150" height="40" as="geometry" />
        </mxCell>
        <mxCell id="SzZliVr7t9WPG1wRtsnK-48" value="" style="shape=module;jettyWidth=8;jettyHeight=4;" vertex="1" parent="SzZliVr7t9WPG1wRtsnK-47">
          <mxGeometry x="1" width="20" height="20" relative="1" as="geometry">
            <mxPoint x="-27" y="7" as="offset" />
          </mxGeometry>
        </mxCell>
        <mxCell id="SzZliVr7t9WPG1wRtsnK-49" value="«Component»&lt;br&gt;&lt;b&gt;Profile&lt;/b&gt;" style="html=1;dropTarget=0;" vertex="1" parent="1">
          <mxGeometry x="500" y="250" width="150" height="40" as="geometry" />
        </mxCell>
        <mxCell id="SzZliVr7t9WPG1wRtsnK-50" value="" style="shape=module;jettyWidth=8;jettyHeight=4;" vertex="1" parent="SzZliVr7t9WPG1wRtsnK-49">
          <mxGeometry x="1" width="20" height="20" relative="1" as="geometry">
            <mxPoint x="-27" y="7" as="offset" />
          </mxGeometry>
        </mxCell>
        <mxCell id="SzZliVr7t9WPG1wRtsnK-54" value="«Component»&lt;br&gt;&lt;b&gt;Project&lt;/b&gt;" style="html=1;dropTarget=0;" vertex="1" parent="1">
          <mxGeometry x="500" y="367" width="150" height="40" as="geometry" />
        </mxCell>
        <mxCell id="SzZliVr7t9WPG1wRtsnK-55" value="" style="shape=module;jettyWidth=8;jettyHeight=4;" vertex="1" parent="SzZliVr7t9WPG1wRtsnK-54">
          <mxGeometry x="1" width="20" height="20" relative="1" as="geometry">
            <mxPoint x="-27" y="7" as="offset" />
          </mxGeometry>
        </mxCell>
      </root>
    </mxGraphModel>
  </diagram>
</mxfile>
